<?xml version="1.0" standalone="no"?>
<!DOCTYPE svg PUBLIC "-//W3C//DTD SVG 20010904//EN"
 "http://www.w3.org/TR/2001/REC-SVG-20010904/DTD/svg10.dtd">
<svg version="1.0" xmlns="http://www.w3.org/2000/svg" width="468" height="203"
     viewBox="0 0 468 203" preserveAspectRatio="xMidYMid meet">
<g fill="black" stroke="none"
   transform="translate(0,203) scale(0.011412,-0.011412)">
<path d="M14940 17750 c-390 -62 -844 -190 -1360 -382 -508 -190 -835 -350
-1195 -586 -405 -264 -847 -647 -1036 -897 -88 -117 -179 -355 -179 -469 0
-269 266 -598 1110 -1372 468 -429 1266 -1114 1492 -1282 29 -21 96 -56 148
-77 302 -119 434 -155 564 -155 227 1 356 46 356 126 0 34 0 34 -152 108 -174
84 -221 119 -443 328 -517 487 -1659 1609 -1824 1792 -191 213 -241 298 -241
414 1 100 48 169 208 306 258 218 657 471 966 612 141 65 562 203 801 262 483
121 789 152 1024 103 270 -57 566 -192 757 -348 40 -32 395 -331 790 -664 396
-333 811 -682 924 -776 493 -409 1130 -882 1314 -975 173 -87 683 -151 945
-119 52 7 288 54 525 106 546 120 698 148 921 175 309 37 507 86 564 139 57
54 33 82 -89 103 -112 19 -902 16 -1380 -6 -543 -25 -652 -25 -774 3 -210 48
-431 140 -581 241 -130 88 -1560 1400 -1749 1605 -744 805 -1253 1337 -1358
1419 -167 132 -351 228 -512 266 -108 26 -370 26 -536 0z"/>
<path d="M14791 16324 c-211 -19 -386 -36 -389 -39 -3 -3 -1 -9 4 -14 63 -59
3238 -2681 3244 -2679 4 2 -523 624 -1171 1383 l-1177 1380 -64 1 c-35 1 -236
-13 -447 -32z"/>
<path d="M13700 16081 c-217 -88 -395 -163 -395 -169 0 -13 3106 -2464 3113
-2457 3 3 -2 13 -10 22 -9 10 -525 635 -1148 1388 -623 754 -1140 1371 -1149
1372 -9 1 -194 -69 -411 -156z"/>
<path d="M12723 15527 c-271 -197 -290 -213 -275 -228 16 -16 2892 -2126 2921
-2144 8 -5 12 -4 10 3 -9 25 -2335 2581 -2349 2581 -8 0 -146 -96 -307 -212z"/>
<path d="M27425 15253 c-715 -62 -1310 -226 -2032 -562 -477 -221 -782 -392
-1205 -673 l-237 -158 -213 0 c-418 0 -755 -50 -1088 -160 -412 -136 -786
-361 -995 -598 -78 -89 -95 -131 -57 -148 36 -16 468 -16 855 1 219 10 400 15
403 13 2 -3 -139 -142 -313 -310 -523 -503 -875 -869 -889 -925 -7 -28 11 -53
39 -53 11 0 300 186 641 413 700 467 966 641 970 636 2 -2 16 -42 31 -89 120
-370 302 -772 443 -979 174 -256 475 -534 753 -694 235 -135 906 -337 1121
-337 105 0 173 33 166 81 -4 31 -92 74 -453 224 -421 175 -562 253 -768 425
-314 262 -553 678 -621 1080 -13 79 -42 529 -34 535 14 12 590 -36 734 -60
200 -34 471 -127 675 -231 103 -53 241 -157 331 -251 l38 -39 -66 -74 c-142
-161 -185 -237 -215 -384 -34 -166 -21 -309 39 -419 36 -67 142 -179 215 -229
114 -77 265 -128 379 -128 63 0 172 26 234 54 l55 25 30 -42 c17 -23 42 -62
57 -87 99 -174 133 -221 212 -301 112 -113 156 -134 275 -134 112 0 175 26
204 84 30 59 51 149 57 251 l6 95 -65 146 c-38 84 -94 236 -132 360 -228 734
-261 813 -463 1099 -79 112 -304 342 -416 425 -259 192 -614 365 -998 486 -76
24 -138 46 -138 49 0 3 62 29 138 58 527 200 951 297 1452 333 583 41 1044
-106 1175 -375 48 -99 67 -203 67 -366 0 -224 -46 -453 -122 -617 -21 -44 -75
-139 -121 -210 -108 -165 -147 -245 -198 -397 -56 -170 -55 -257 6 -285 92
-42 430 22 1078 203 298 83 422 109 1040 221 231 42 591 107 800 145 667 121
1412 246 2295 384 784 123 943 144 2795 375 1238 155 1530 194 1650 221 106
24 211 74 239 112 19 26 19 30 4 62 -19 40 -65 58 -193 78 -109 18 -1013 17
-1315 0 -964 -55 -1631 -116 -2730 -247 -393 -47 -980 -117 -1305 -155 -1427
-171 -2442 -299 -2866 -363 l-215 -32 32 77 c65 153 125 395 156 623 20 154
18 702 -4 825 -98 551 -388 834 -928 906 -95 12 -385 17 -495 7z m-1323 -3376
c45 -84 91 -186 102 -223 6 -18 -1 -24 -41 -41 -85 -36 -100 -37 -120 -6 -9
16 -48 70 -87 122 l-70 94 80 72 c43 40 82 71 86 69 3 -2 26 -41 50 -87z"/>
<path d="M39360 13604 c-360 -24 -564 -52 -995 -139 -784 -158 -1696 -416
-2400 -680 -892 -335 -3235 -1441 -4410 -2083 -192 -104 -1695 -969 -3460
-1990 -1390 -804 -1328 -766 -1441 -884 -146 -151 -214 -322 -214 -533 0 -197
36 -298 161 -452 124 -155 345 -398 471 -518 94 -90 113 -104 195 -137 169
-70 290 -77 379 -23 121 76 93 188 -140 562 -59 95 -119 198 -133 229 -48 106
-40 223 24 323 30 47 82 83 598 421 673 440 1274 825 1535 981 360 217 1677
929 2563 1387 l78 40 38 -77 c21 -42 107 -220 191 -396 84 -176 157 -324 161
-329 10 -11 -4 -65 143 587 68 301 125 549 127 552 12 11 523 254 527 250 3
-2 58 -178 123 -391 64 -212 119 -388 122 -390 2 -3 93 215 202 483 109 268
211 522 229 564 l31 76 95 43 c451 203 1306 546 2275 913 146 55 171 62 176
48 3 -9 43 -217 89 -464 46 -246 87 -444 91 -440 4 5 101 262 215 573 114 311
208 566 209 567 2 4 390 141 392 139 1 -1 41 -243 88 -537 48 -293 89 -541 91
-549 5 -13 6 -13 13 0 4 8 99 297 211 642 l204 626 55 12 c412 86 742 90 1100
16 99 -21 155 -51 226 -121 97 -97 155 -244 140 -355 -25 -181 -287 -484 -798
-922 -321 -276 -564 -459 -832 -630 -99 -63 -556 -357 -1015 -653 -1213 -782
-1783 -1148 -2060 -1323 -345 -218 -675 -433 -1280 -836 -1131 -752 -1277
-859 -1470 -1081 -100 -114 -223 -275 -216 -282 3 -3 148 81 323 187 2027
1228 3188 1935 3578 2177 116 71 496 297 845 500 349 204 738 432 864 507 125
75 232 136 236 136 4 0 96 -234 205 -520 109 -286 201 -520 204 -520 3 0 82
339 174 752 92 414 169 753 170 754 50 36 301 194 304 191 2 -2 59 -322 126
-711 67 -388 124 -706 127 -706 3 0 101 431 217 958 157 707 217 960 229 969
53 38 328 268 444 369 171 150 420 399 529 529 45 55 116 150 157 210 149 224
208 404 208 630 0 149 -14 212 -70 332 -86 182 -268 297 -606 384 -171 43
-260 51 -593 54 -176 1 -345 1 -375 -1z"/>
<path d="M20623 13321 l-823 -197 -600 95 -600 94 -2227 -682 c-1225 -375
-2228 -683 -2230 -685 -2 -2 123 -240 277 -529 154 -290 280 -530 280 -535 0
-4 -550 -135 -1222 -291 l-1223 -284 -2065 -943 -2065 -942 -2005 -1122
c-1103 -617 -2009 -1127 -2015 -1132 -7 -7 -3 -8 12 -4 12 4 456 191 985 416
530 224 964 407 965 406 2 -2 -42 -85 -96 -187 -55 -101 -98 -186 -96 -188 5
-4 12 1 573 426 257 194 412 306 412 296 0 -9 -12 -101 -26 -205 -14 -104 -24
-196 -22 -205 2 -8 165 172 386 427 210 243 382 439 382 436 0 -2 -32 -143
-70 -312 -39 -170 -69 -312 -67 -317 1 -5 180 194 396 442 343 394 417 477
398 444 -11 -19 -228 -706 -224 -710 3 -2 235 239 517 537 282 298 514 540
515 538 2 -2 -54 -190 -125 -418 -114 -366 -138 -453 -112 -414 10 15 1054
1144 1058 1144 1 0 -6 -30 -16 -67 -63 -233 -240 -938 -238 -949 2 -7 248 293
548 666 300 373 546 677 548 675 2 -1 -43 -235 -98 -520 -56 -284 -100 -521
-98 -526 2 -5 246 286 542 646 297 361 542 658 546 660 4 2 -71 -249 -166
-558 -96 -309 -172 -566 -171 -571 2 -4 275 336 607 758 332 421 605 764 606
763 2 -1 -82 -297 -186 -657 -104 -360 -187 -656 -185 -658 4 -4 -6 -16 640
808 290 371 532 679 537 685 5 5 -7 -33 -26 -85 -19 -52 -122 -338 -230 -634
-108 -297 -195 -544 -193 -550 3 -8 182 197 1126 1291 91 106 167 191 168 189
2 -2 -100 -308 -227 -681 -127 -373 -228 -680 -225 -684 4 -3 14 4 23 16 32
41 1337 1542 1339 1539 1 -1 -90 -310 -202 -686 -112 -376 -202 -687 -199
-689 6 -7 -47 -64 894 959 458 498 839 912 847 920 17 19 25 39 -332 -869
-163 -414 -294 -758 -293 -763 2 -6 381 400 842 901 461 502 840 910 842 908
2 -2 -113 -349 -257 -771 -143 -423 -258 -770 -255 -773 5 -5 89 94 1131 1315
324 380 591 690 593 688 2 -3 -416 -1630 -434 -1690 -4 -10 -2 -17 4 -15 6 2
355 462 777 1022 422 560 768 1017 770 1015 2 -2 -75 -422 -171 -933 -96 -512
-173 -936 -172 -944 2 -8 511 618 1132 1390 620 772 1124 1405 1119 1406 -5 2
-243 -53 -528 -121 -285 -69 -520 -124 -522 -122 -2 2 166 223 373 492 461
598 458 594 453 598 -2 2 -374 -85 -826 -193z"/>
<path d="M12845 11553 c-269 -129 -879 -421 -1355 -648 -2010 -959 -3674
-1759 -4235 -2034 -289 -142 -441 -225 -775 -423 -1898 -1123 -3014 -1741
-3225 -1785 -118 -25 -437 -22 -665 5 -150 18 -197 19 -320 11 -421 -27 -1116
-88 -1297 -115 -199 -29 -431 -109 -653 -225 -124 -65 -258 -157 -296 -202
l-24 -29 0 -327 0 -328 38 -59 c96 -147 327 -308 722 -504 250 -123 540 -308
820 -521 170 -129 241 -198 280 -271 31 -56 35 -73 38 -160 4 -88 1 -111 -43
-282 l-46 -186 11 -132 c24 -296 78 -535 155 -688 60 -118 138 -169 261 -170
81 0 111 8 284 75 l125 49 115 115 c215 216 535 631 649 841 166 305 352 603
504 806 154 205 295 332 522 469 190 115 541 279 809 379 60 23 68 24 63 8 -3
-9 -28 -79 -56 -155 -96 -258 -133 -451 -96 -504 47 -67 513 -186 1120 -284
159 -26 231 -33 350 -33 148 -1 151 -1 204 29 123 68 205 211 488 850 142 321
222 482 278 560 124 172 357 339 565 404 118 37 510 108 813 147 75 10 137 21
137 24 0 10 -210 57 -373 85 -446 75 -1042 84 -1572 24 -430 -48 -690 -114
-1215 -306 -113 -42 -311 -110 -440 -153 -587 -194 -1424 -602 -1787 -872
-201 -150 -491 -525 -783 -1013 -215 -360 -309 -465 -419 -465 -30 0 -44 6
-59 25 -17 21 -19 39 -17 152 1 119 4 135 38 234 44 127 50 215 17 278 -54
107 -271 330 -494 509 -200 161 -375 271 -661 414 -419 210 -686 368 -783 461
-81 79 -86 181 -13 257 61 63 276 132 638 205 403 81 1022 142 1340 133 145
-4 150 -5 218 -38 152 -76 152 -150 -5 -514 -28 -65 -48 -121 -46 -123 3 -3
134 94 293 214 531 404 821 618 988 730 367 245 3710 2062 5145 2796 702 359
1587 749 2602 1147 972 382 1372 507 2090 655 94 20 174 38 177 41 5 5 -640
655 -649 653 -3 -1 -225 -107 -495 -236z m-5644 -5642 c-101 -121 -223 -347
-324 -606 -81 -206 -103 -251 -163 -342 -59 -88 -105 -131 -181 -166 -43 -20
-63 -22 -193 -21 -280 2 -584 64 -644 132 -16 18 -18 31 -12 83 10 81 49 215
90 304 47 103 105 183 178 249 154 140 571 288 1068 380 74 14 144 27 155 29
11 3 31 5 43 6 22 1 21 -2 -17 -48z"/>
<path d="M6255 5338 c-192 -220 -351 -403 -353 -407 -2 -6 375 -61 447 -65 9
-1 50 123 137 414 142 481 137 460 127 459 -5 0 -165 -181 -358 -401z"/>
<path d="M19682 8649 c-74 -11 -341 -87 -462 -131 -123 -45 -396 -162 -610
-262 -696 -327 -1317 -705 -1745 -1065 -869 -730 -1393 -1378 -1711 -2117 -64
-150 -168 -468 -193 -591 -53 -256 -12 -505 115 -710 57 -94 230 -270 324
-332 392 -257 1286 -461 2190 -501 254 -11 510 -2 730 25 559 69 1566 262
2660 510 454 103 611 118 1368 131 215 4 392 10 392 13 0 17 -68 86 -125 126
-152 109 -402 188 -715 227 -66 8 -215 13 -400 13 l-295 -1 -630 -106 c-346
-59 -704 -118 -795 -132 -334 -52 -718 -76 -1201 -76 -737 0 -1237 64 -1491
191 -328 163 -574 479 -674 864 -27 101 -29 124 -28 280 0 155 3 178 28 260
72 239 261 552 561 930 345 435 571 657 985 972 342 259 626 441 1288 825 410
238 496 290 599 367 137 101 190 185 147 233 -48 54 -178 78 -312 57z"/>
<path d="M13070 6806 c-379 -148 -1600 -848 -2950 -1689 -168 -105 -352 -222
-410 -260 -648 -434 -3079 -2287 -3341 -2547 -127 -126 -253 -338 -314 -530
-32 -100 -45 -273 -26 -359 18 -84 61 -161 127 -227 102 -102 177 -133 714
-290 1809 -528 2692 -748 3495 -871 171 -26 198 -28 545 -28 341 0 372 2 478
23 341 69 625 225 814 447 126 148 217 298 470 775 379 712 543 1039 743 1480
453 995 736 1663 834 1964 66 202 52 234 -55 122 -159 -166 -640 -858 -1279
-1841 -114 -176 -271 -417 -348 -535 -523 -803 -998 -1434 -1221 -1621 -112
-95 -136 -103 -280 -96 -325 15 -921 157 -2171 518 -939 272 -1457 434 -1532
480 -66 41 -80 96 -43 169 23 45 47 66 775 701 1787 1556 1833 1594 3205 2639
1455 1108 1930 1498 1930 1585 0 22 -4 25 -37 25 -21 -1 -76 -16 -123 -34z"/>
<path d="M32343 5982 c-13 -2 -23 -7 -23 -11 0 -4 160 -104 355 -222 1271
-767 1742 -1056 2340 -1434 1029 -652 1755 -1152 2155 -1485 161 -134 208
-183 247 -256 46 -87 60 -167 45 -257 -19 -111 -58 -183 -152 -281 -276 -288
-764 -461 -1495 -532 -168 -16 -488 -24 -500 -13 -4 5 36 617 68 1012 1 20 -1
37 -5 37 -4 0 -167 -198 -362 -439 l-356 -439 -100 34 c-322 109 -508 70 -599
-126 -30 -65 -41 -207 -21 -278 38 -143 297 -255 740 -321 869 -128 1837 -47
2550 215 152 57 445 205 575 292 218 147 351 278 455 451 192 321 184 572 -29
858 -61 83 -110 126 -247 219 -69 47 -84 62 -84 83 0 14 7 298 16 631 8 333
14 638 12 679 l-3 75 -313 -523 -314 -522 -41 24 c-23 13 -75 43 -114 66 l-73
42 0 612 c0 512 -2 609 -13 597 -8 -8 -134 -210 -281 -447 -148 -238 -272
-433 -276 -433 -9 0 -913 504 -1135 632 -500 290 -1310 726 -1844 993 -676
338 -1050 486 -1178 467z"/>
<path d="M28400 5699 c-342 -20 -579 -48 -629 -73 -57 -30 -83 -129 -57 -218
15 -51 23 -61 123 -145 375 -312 1789 -1391 2039 -1555 240 -158 1121 -704
1879 -1166 841 -513 984 -594 1239 -700 95 -40 121 -46 181 -47 53 0 79 5 105
20 69 40 93 155 34 155 -14 0 -60 14 -102 31 -83 34 -352 179 -352 190 0 4 97
215 216 469 118 254 213 464 211 466 -2 3 -215 -129 -473 -292 -258 -164 -474
-297 -480 -297 -21 0 -617 428 -1109 797 -1033 775 -2306 1809 -2514 2043 -82
92 -81 154 7 326 4 8 -132 7 -318 -4z"/>
<path d="M9823 3467 c-1090 -892 -1982 -1624 -1983 -1627 0 -5 634 -180 663
-184 6 0 514 519 1127 1154 613 635 1359 1408 1658 1718 299 309 537 562 530
561 -7 0 -905 -730 -1995 -1622z"/>
<path d="M10822 3274 c-958 -983 -1742 -1790 -1742 -1794 0 -4 136 -42 303
-83 232 -59 305 -73 313 -64 6 7 651 840 1434 1852 783 1012 1430 1848 1438
1858 8 9 11 17 5 17 -5 0 -794 -804 -1751 -1786z"/>
<path d="M12225 3483 c-731 -850 -1482 -1723 -1669 -1940 -186 -217 -337 -396
-334 -398 2 -2 125 -38 273 -79 212 -59 272 -73 282 -63 10 10 2731 3928 2777
4000 10 15 14 27 10 27 -5 -1 -607 -696 -1339 -1547z"/>
<path d="M24645 3784 c-171 -30 -416 -99 -675 -189 -192 -67 -510 -197 -504
-206 3 -5 19 -9 35 -9 55 0 491 -51 608 -71 95 -16 128 -27 204 -66 99 -53
212 -149 233 -200 18 -42 18 -148 -2 -406 -8 -115 -14 -210 -12 -212 2 -1 131
19 288 46 377 65 831 135 1005 155 347 41 775 -24 947 -143 109 -74 102 -213
-27 -613 -36 -110 -65 -212 -65 -227 1 -36 31 -100 66 -140 l29 -32 165 90
c402 221 496 266 660 313 309 88 661 156 815 156 104 0 177 -19 294 -76 73
-36 110 -62 165 -118 91 -90 110 -129 103 -209 -5 -56 -60 -188 -114 -269 -9
-15 -14 -31 -10 -35 4 -4 49 -9 100 -11 90 -4 97 -2 267 53 96 31 229 73 295
93 l120 36 344 4 c203 2 394 -1 465 -8 66 -6 294 -40 506 -76 1607 -272 1613
-272 1740 -240 70 18 210 80 210 93 0 4 -159 52 -352 106 -2071 578 -4013
1132 -4650 1328 -432 133 -788 268 -1563 594 -750 316 -1105 450 -1295 490
-89 19 -286 18 -395 -1z"/>
</g>
</svg>
