<?xml version="1.0"?>
<!DOCTYPE svg PUBLIC "-//W3C//DTD SVG 1.0//EN" "http://www.w3.org/TR/2001/REC-SVG-20010904/DTD/svg10.dtd">
<svg width="213.067" height="48.158" viewBox="0 0 213.067 48.158">
  <g id="pike" fill="#0A50A1" stroke="#404040" stroke-width="0.5">
    <path id="p" d="M18.263,16.665c0.238-0.875,0.368-1.576,1.355-2.276c0.829-0.569,1.904-0.919,2.946-0.919c3.861,0,2.596,4.421,2.096,6.259c-0.346,1.27-0.897,2.845-1.721,4.071c-0.812,1.182-2.094,1.838-3.81,1.838c-2.941,0-2.749-2.057-2.32-3.633L18.263,16.665z M8.332,8.348L0.327,37.763H12.46l2.573-9.455c1.363,1.97,4.067,2.845,7.314,2.845c4.351,0,8.052-1.663,10.8-4.333c2.25-2.189,3.576-5.034,4.255-7.529c1.429-5.253,0.156-11.381-8.669-11.381c-4.167,0-7.849,0.919-9.874,3.633h-0.123l0.87-3.195H8.332z"/>
    <path id="i" d="M52.616,30.715H40.483L46.57,8.348h12.133L52.616,30.715z M59.287,6.203H47.153l1.62-5.953h12.134L59.287,6.203z"/>
    <path id="k" d="M88.104,16.052l6.55,14.664H81.969l-3.441-8.973l-3.826,2.801l-1.68,6.172H60.888L69.06,0.688h12.133l-4.407,16.195l3.314-2.495l8.997-6.041h10.54L88.104,16.052z"/>
    <path id="k" d="M111.472,16.883c0.438-2.057,2.213-3.852,5.399-3.852c3.432,0,3.959,1.663,3.364,3.852H111.472z M119.448,22.705c-1.015,1.926-2.761,2.714-5.519,2.714c-3.677,0-4.426-1.751-3.587-4.158H131.3l0.321-1.182c2.001-7.354-3.062-12.168-13.479-12.168c-4.473,0-9.551,1.094-13.381,3.458c-3.524,2.145-6.072,5.428-6.895,8.448c-0.869,3.196,0.074,6.26,2.86,8.404c2.947,2.232,7.229,2.933,11.826,2.933c7.415,0,14.834-2.495,18.211-7.922L119.448,22.705z"/>
  </g>
  <g id="TM" fill="#404040">
    <path id="T" d="M133.595,8.268h-0.736v2.355h-0.686V8.268h-0.745V7.686h2.167V8.268z"/>
    <path id="M" d="M135.73,10.623h-0.471l-0.716-2.394h-0.008v2.394h-0.578V7.686h1.074l0.514,1.76l0.54-1.76h1.075v2.938h-0.686V8.229h-0.018L135.73,10.623z"/>
  </g>
  <g id="fish" fill="#404040">
    <path id="eyebrow" d="M204.113,2.106c-0.049-0.386-3.471,0.589-7.848,2.18c-1.288,0.507-9.864,3.751-11.253,4.395c0.118-0.537,0.184-1.712-0.297-3.183c-0.733-2.241-2.39-2.167-3.989-1.598c-2.127,0.755-3.371,1.739-4.53,2.703c-0.884,0.736-1.661,1.529-2.399,2.397c-1.148,0.223-2.078,0.625-2.726,1.013c-0.733,0.439-1.638,1.248-1.982,1.91c-0.128,0.243-0.229,0.401-0.127,0.435c0.22,0.071,2.327-0.602,2.586-0.673c0.103-0.029,0.216-0.06,0.331-0.09c-0.869,1.359-2.126,3.422-2.068,3.541c0.077,0.162,0.213-0.018,0.213-0.018s1.512-1.701,2.938-3.239c0.63,0.991,1.194,1.72,1.681,2.151c0.501,0.445,1.353,0.961,2.189,1.168c0.721,0.179,2.154,0.193,2.359,0.144c0.467-0.027,0.654-0.198,0.611-0.308c-0.045-0.11-1.51-0.259-2.032-0.37c-0.524-0.11-1.196-0.353-1.747-0.772c-0.422-0.321-0.958-0.799-1.354-1.631c-0.182-0.375-0.413-1.284-0.413-1.284s1.241-0.277,1.89-0.297c0.697-0.02,1.367,0.107,1.652,0.185c0.287,0.077,0.854,0.412,0.854,0.412s-0.43,0.683-0.397,1.085c0,0.799,0.28,1.102,0.843,1.389c0.578,0.248,1.166,0.204,1.631-0.237c0.302,0.198,0.512,0.572,0.892,0.784c0.399,0.297,0.826,0.262,1.079-0.02c0.172-0.188,0.006-0.907,0.006-0.907s-0.162-0.201-0.396-0.497c-0.106-0.136-0.459-0.731-0.761-1.22c-0.452-0.73-0.61-0.98-1.259-1.54c-0.895-0.772-2.197-1.201-4.115-1.275c1.054-0.779,2.122-1.417,3.521-1.854c1.311-0.411,2.384-0.314,2.802,0.196c0.419,0.509,0.532,1.53,0.467,2.126c-0.056,0.5-0.312,0.912-0.37,1.397c-0.059,0.486-0.102,0.8,0.088,0.919c0.301,0.192,2.439-1.122,2.841-1.337c0.51-0.274,2.258-1.046,3.458-1.599c1.859-0.857,4.719-2.083,6.348-2.765c1.604-0.672,7.911-3.077,8.337-3.305C204.089,2.39,204.23,2.185,204.113,2.106z M179.606,12.029c0,0,0.479,0.48,0.567,0.7c-0.16,0.159-0.17,0.13-0.326,0.225c-0.169-0.188-0.551-0.464-0.551-0.464L179.606,12.029z"/>
    <path id="top_fin" d="M169.052,9.425c-0.145-0.289-4.352,1.091-4.737,1.163c-0.553,0.104-1.438,0.039-2.054-0.241c-0.274-0.125-4.313-2.312-4.313-2.312s-3.83-2.505-4.266-2.686c-0.647-0.271-1.306-0.43-2.034-0.173c-1.464,0.516-3.153,1.659-4.224,2.481c-1.972,1.513-3.246,3.665-3.359,4.181c-0.169,0.767-0.193,1.156,0.602,1.803c1.322,1.077,6.685,3.667,6.871,3.692c0.188,0.025,1.168,0.175,1.507,0.089c0.341-0.086,0.809-0.241,0.825-0.462c0.016-0.222-0.451-0.067-1.117-0.406c-0.732-0.373-5.371-3.058-5.645-3.278c-0.137-0.11-0.879-0.466-0.804-1.028c0.067-0.498,1.544-2.133,2.358-2.697c1.572-1.086,2.764-1.532,3.171-1.635c0.852-0.215,1.958,0.011,2.538,0.299c0.581,0.287,3.717,1.812,4.707,2.285c0.988,0.474,3.102,1.387,3.588,1.446c0.329,0.04,1.548-0.03,2.322-0.406c0.317-0.155,2.15-1.088,2.447-1.199C167.736,10.229,169.199,9.714,169.052,9.425z"/>
    <polygon id="tf_stripe_1" points="150.798,8.966 152.761,8.288 159.689,13.197"/>
    <polygon id="tf_stripe_2" points="148.527,10.434 150.177,9.232 156.976,14.209"/>
    <polygon id="tf_stripe_3" points="146.919,12.289 148.012,10.981 154.8,15.484"/>
    <path id="side_fin" d="M153.554,31.016c0.307,0.212-4.729,6.173-6.285,8.361c-1.604,2.252-4.197,6.021-4.197,6.021s-0.254,0.426,0.138,0.544c0.392,0.119,4.147,0.218,4.147,0.218s4.503,0.201,5.133-0.176c0.629-0.376,1.836-3.904,2.047-4.5c0.211-0.597,2.549-7.668,2.553-6.512c0.004,1.159-0.995,6.371-0.995,6.371s-0.79,3.459-1.001,4.056c-0.212,0.597-0.684,2.019-3.279,2.495c-2.594,0.475-8.138,0.176-10.182,0.114c-2.043-0.062-1.326-2.235-1.029-2.781c0.296-0.546,5.16-6.688,6.293-7.893C148.552,35.576,153.246,30.804,153.554,31.016z"/>
    <polygon id="sf_stripe_1" points="150.017,45.588 151.328,45.618 155.35,34.897"/>
    <polygon id="sf_stripe_2" points="147.242,45.493 148.689,45.489 153.087,35.398"/>
    <polygon id="sf_stripe_3" points="144.244,45.383 145.845,45.412 151.369,35.76"/>
    <path id="chin" d="M167.867,23.194c0.359,0.561-3.006,2.716-4.887,5.871c-0.287,0.58-1.422,2.677-1.334,3.886c0.088,1.208,1.199,2.449,2.511,2.623c1.312,0.175,4.594-0.728,5.87-1.268c1.275-0.541,3.061-1.354,3.461-1.492c2.772-0.773,3.414,0.041,3.414,0.041s-2.596,0.622-3.395,1.041c-0.798,0.419-4.938,2.517-6.708,3.11c-1.73,0.579-5.156,0.943-6.495,0.375c-1.336-0.566-1.503-1.646-1.479-2.268c0.053-2.656,1.258-4.927,2.84-7.091c1.561-2.133,4.338-4.175,4.688-4.373C166.703,23.452,167.466,22.897,167.867,23.194z"/>
    <path id="below_jaw" d="M201.222,32.337c0,0-10.09-0.235-12.516-0.381c-2.427-0.146-5.885-0.937-6.932-0.781c-1.047,0.157-3.102,1.763-3.102,1.763s1.565-0.251,1.829-0.21c0.264,0.042,0.774,0.203,0.87,0.432c0.094,0.23,0.268,1.345,0.268,1.345s2.21-0.993,2.94-1.251c0.732-0.257,1.966-0.389,2.267-0.066c0.297,0.322,0.063,1.686,0.105,1.855c0.043,0.171,0.3,0.324,0.3,0.324s0.968-0.896,1.205-1.102c0.237-0.205,1.7-1.009,2.287-1.122c0.588-0.113,1.286,0.218,1.397,0.515c0.111,0.297-0.108,0.859-0.108,0.859s0.313-0.003,0.46-0.09c0.148-0.084,1.011-0.644,1.215-0.732c0.328-0.14,1.421-0.398,1.906-0.482c0.484-0.083,4.621-0.336,4.986-0.465C200.966,32.619,201.222,32.337,201.222,32.337z"/>
    <path id="tail" d="M150.986,19.75c0,0-12.443,10.321-12.877,10.756c-0.433,0.436-6.215,6.208-6.919,6.566c-0.706,0.36-1.745,0.405-2.017,0.475c-0.272,0.069-2.407,0.791-3.163,1.09c-0.757,0.301-1.802,1.18-1.944,1.616c-0.145,0.434-0.084,0.961,0.455,1.513c0.537,0.552,2.386,0.845,2.386,0.845s1.926,0.599,2.421,0.98c0.494,0.381,0.301,1.191,0.344,1.506c0.043,0.315,0.602,1.804,1.088,2.006c0.484,0.203,0.791-0.164,1.164-0.403c0.375-0.24,1.211-2.371,1.211-2.371s0.43-1.882,0.996-2.93c0.568-1.049,2.463-2.291,2.463-2.291s-0.21,1.391-0.006,1.629c0.206,0.237,2.707,0.039,3.406-0.066c0.697-0.104,0.772-0.452,0.953-1.31c0.198-0.937,0.311-1.924,0.471-2.436c0.144-0.46,0.588-1.036,1.089-1.344c0.502-0.308,2.051-0.914,2.051-0.914s-2.062-0.13-4.944,1.07c-1.277,0.531-2.318,1.419-3.016,1.813c-0.697,0.394-3.228,2.41-3.703,3.254c-0.474,0.844-0.803,1.833-0.996,2.497c-0.195,0.665-0.381,1.219-0.695,1.262c-0.314,0.044-0.197-0.349-0.307-0.501c-0.112-0.153,0.1-0.605-0.064-0.962c-0.162-0.357-1.799-1.247-2.94-1.465c-1.141-0.218-2.24-0.556-2.386-0.7c-0.145-0.144-0.222-0.306-0.104-0.553s1.309-0.838,1.998-1.122c0.688-0.282,2.347-0.883,2.721-0.833c0.375,0.05,0.478,0.168,0.479,0.458c0.001,0.289-0.134,1.048-0.134,1.048s1.782-2.262,2.376-2.92c0.594-0.656,8.481-7.975,10.843-9.948c2.36-1.974,5.979-4.558,7.151-5.214c1.15-0.643,1.973-1.009,1.973-1.009L150.986,19.75z M137.857,38.026c0.611-0.806,2.729-1.668,2.729-1.668s-0.352,0.397-0.514,1.833c-0.072,0.641-0.205,1.193-0.635,1.355c-0.429,0.163-1.826,0.353-1.881,0.078C137.488,39.279,137.488,38.514,137.857,38.026z"/>
    <polygon id="tf_stripe" points="138.086,39.507 139.143,39.384 139.226,37.282"/>
    <path id="lower_jaw_extra" d="M200.58,30.291l0.453-2.37l-1.807,1.905c-2.377-0.878-5.476-2.26-5.476-2.26s-4.293-1.915-4.509-2.227c-0.172-0.247-0.02-0.647-0.02-0.647s-1.955,0.567-2.093,0.747c-0.136,0.179-0.065,0.451,0.079,0.595c0.145,0.145,4.772,2.124,5.574,2.428c0.801,0.304,7.166,2.278,7.473,2.345c0.307,0.068,1.074,0.235,1.277,0.184c0.204-0.052,0.417-0.214,0.279-0.469C201.625,30.57,201.174,30.473,200.58,30.291z"/>
    <path id="lower_jaw" d="M212.265,25.756c-0.104-0.077-0.383-0.19-0.772-0.323l-0.727-3.202l-0.821,2.725c-0.202-0.059-0.41-0.119-0.622-0.178l-0.684-2.764l-0.753,2.368c-1.264-0.343-2.402-0.639-2.758-0.743c-0.888-0.258-7.43-2.031-7.904-1.609c0.718,0.254,10.299,2.994,13.164,4.514c0.438,0.232,0.7,0.692,0.512,1.301c-0.454,1.074-1.826,1.9-3.888,2.522c-0.141,0.042-0.307,0.073-0.479,0.096l-0.429-2.42l-1.116,2.416c-0.413-0.047-0.84-0.081-1.172,0.084c-0.314,0.157-0.484,0.593-0.266,1.1c0.275,0.635,2.267,0.301,2.891,0.191c1.629-0.286,3.553-1.008,4.766-1.912c1.066-0.795,1.564-1.544,1.73-2.104C213.183,26.996,213.142,26.409,212.265,25.756z"/>
    <path id="upper_jaw" d="M212.685,0.99c-0.283-0.398-0.582-0.652-1.672-0.667c-0.793-0.01-1.771,0.284-2.578,0.544c-1.573,0.507-5.225,2.435-7.497,4.142c-2.616,1.966-6.862,5.502-8.866,7.458c-0.953,0.932-7.76,7.534-8.336,8.12c-1.096,1.11-0.445,2.248-0.24,2.486c0.207,0.241,1.748,1.262,1.98,1.312c0.307,0.067,0.758,0.134,0.995-0.071c0.208-0.179,0.254-0.281-0.07-0.706c-0.155-0.204-0.778-0.757-0.922-0.926c-0.308-0.356-0.206-0.817-0.037-1.004c0.17-0.188,3.222-3.535,4.133-4.413c0.591-0.57,2.667-2.514,4.945-4.526l1.348,1.612l-0.072-2.728c0.36-0.311,0.716-0.613,1.069-0.911l1,1.656l0.387-2.795c0.363-0.292,0.718-0.57,1.047-0.817c0.93-0.698,2.605-1.902,4.144-2.965l0.927,2.005l0.299-2.84c0.297-0.199,0.576-0.384,0.83-0.548l1.033,2.388l0.211-3.128c1.006-0.52,1.766-0.696,2.704-0.738c0.462-0.02,1.062,0.464,1.024,1.044c-0.057,0.919-2.16,3.624-2.533,4.008c-0.374,0.384-5.779,6.205-6.213,6.641c-0.441,0.443-4.006,4.345-4.522,5.019c-0.518,0.674-0.813,1.509-0.813,1.509s6.859-6.95,7.572-7.71c0.412-0.44,2.045-1.995,3.642-3.602l1.512,2.15l-0.101-3.601c0.211-0.223,0.41-0.437,0.599-0.644l1.379,3.093l-0.136-4.573c0.813-1.055,2.044-2.779,2.131-3.942C213.027,1.772,212.966,1.389,212.685,0.99z"/>
    <polygon id="back" points="169.318,12.984 167.025,14.189 168.316,11.206 164.822,13.036 162,13.294 152.708,18.928 154.61,21.023 149.373,23.725 141.13,30.336 133.304,37.748 137.312,34.706 137.061,35.711 138.876,33.442 138.998,34.496 140.25,32.008 140.289,33.591 141.593,31.017 141.478,32.856 143.224,29.734 143.111,31.864 144.888,28.589 144.879,31.126 146.605,27.358 146.75,29.929 148.493,26.229 148.347,29.09 150.242,24.845 150.132,28.131 151.976,23.971 151.644,27.242 153.761,23.013 153.48,26.487 155.699,22.087 155.556,25.528 158.47,20.156 157.937,24.346 160.748,19.145 160.435,23.062 163.212,17.435 163.189,21.641 165.539,16.049 165.825,20.612"/>
  </g>
</svg>
