/* XPM */
static char *pike[] = {
/* columns rows colors chars-per-pixel */
"32 32 5 1",
"  c black",
". c #80808000",
"X c #C0C0C000",
"o c gray100",
"O c None",
/* pixels */
"OO                          OOOO",
"OO oooooooooooooooooooooooo OOOO",
"OO ooo.   .o. o. o. o.    o OOOO",
"OO ooo     o  o  . .o     o OOOO",
"OO ooo .o  . ..   .o. .oooo OOOO",
"OO oo.    .  o   .oo     oo OOOO",
"OO oo    .o  o   .oo    .oo OOOO",
"OO oo .ooo. .. .  o. .ooooo OOOO",
"OO o. .ooo. o. o. .     .oo OOOO",
"OO o..oooo..o..o........ooo OOOO",
"OO oooooooooooooooooooooooo OOOO",
"OO oooooooooooooooooooooooX.. OO",
"OO oooooXXooooooooX .ooXX.. .XOO",
"OO oooo.  .Xooooo..X X..X..Xo.OO",
"OO oooX .....XXX  .X..oo..oo..OO",
"OO ooo. ..Xo.....X. Xoo..oo.XOOO",
"OO ooooX.XX.   ooXXooo.XooX.OOOO",
"OO oooooo.   .Xoooooo.XooXX OOOO",
"OO ooooX..  Xooooooo..oooXX OOOO",
"OO oooX.  .ooXXoooooXXXoooX.X.OO",
"OO ooX. .XooX.oooooooo..XooXoXOO",
"OO o. .Xoooo.ooooooooooXXXXX..OO",
"OO ..XooXXoX.oooXXo. ....XX..XOO",
"OO...XoX.oX. ...XooooXXoooo OOOO",
"X....Xo.XXXoX.Xoooooooooooo OOOO",
"Xo...o..XX.oooooooooooooooo OOOO",
"X..oo.....Xoooooooooooooooo OOOO",
"O. oo ....ooooooooooooooooo OOOO",
"OO oooooooooooooooooooooooo OOOO",
"OO                          OOOO",
"OOOOOOOOOOOOOOOOOOOOOOOOOOOOOOOO",
"OOOOOOOOOOOOOOOOOOOOOOOOOOOOOOOO"
};
