<svg xmlns="http://www.w3.org/2000/svg" width="511.626" height="511.627" viewBox="0 0 511.626 511.627" class="icon"><path class="icon" d="M361.16 291.652c15.038-21.796 22.56-45.922 22.56-72.375 0-7.422-.76-15.417-2.285-23.984l-79.938 143.32c24.738-9.512 44.628-25.175 59.664-46.96zM372.872 94.22c.19-.377.28-1.234.28-2.567 0-3.237-1.522-5.802-4.57-7.715-.57-.38-2.424-1.475-5.57-3.287-3.137-1.804-6.14-3.566-8.988-5.28-2.854-1.714-5.99-3.473-9.422-5.28-3.426-1.81-6.375-3.285-8.846-4.428-2.48-1.14-4.19-1.713-5.14-1.713-3.427 0-6.093 1.524-7.995 4.568L307.21 96.214c-17.316-3.234-34.45-4.854-51.39-4.854-51.202 0-98.405 12.946-141.614 38.83C70.998 156.08 34.836 191.386 5.71 236.115 1.904 242.02 0 248.586 0 255.82c0 7.23 1.903 13.8 5.71 19.697 16.75 26.073 36.593 49.396 59.53 69.95 22.935 20.56 48.01 37.017 75.228 49.395-8.375 14.273-12.562 22.556-12.562 24.842 0 3.425 1.524 6.088 4.57 7.99 23.22 13.33 35.97 19.985 38.256 19.985 3.422 0 6.09-1.53 7.992-4.576l13.99-25.406c20.177-35.967 50.248-89.93 90.222-161.878 39.972-71.95 69.95-125.815 89.936-161.6zM158.456 362.886c-49.486-22.27-90.126-57.955-121.91-107.063 28.932-44.92 65.19-78.518 108.778-100.783-11.61 19.79-17.417 41.205-17.417 64.236 0 20.365 4.66 39.68 13.99 57.955 9.327 18.275 22.27 33.4 38.83 45.393l-22.27 40.262zm107.07-206.998c-2.663 2.667-5.907 4-9.713 4-16.368 0-30.36 5.807-41.97 17.415-11.614 11.615-17.417 25.603-17.417 41.97 0 3.812-1.336 7.045-4 9.71-2.667 2.668-5.9 4-9.706 4-3.81 0-7.045-1.334-9.71-4-2.667-2.665-4-5.902-4-9.71 0-23.79 8.52-44.205 25.554-61.24 17.034-17.035 37.447-25.554 61.24-25.554 3.807 0 7.044 1.336 9.714 4 2.662 2.663 3.996 5.9 3.996 9.706 0 3.808-1.333 7.044-3.99 9.703z"/><path class="icon" d="M505.916 236.114c-10.853-18.08-24.603-35.594-41.255-52.534-16.645-16.94-34.02-31.496-52.104-43.68l-17.987 31.977c31.784 21.888 58.624 49.87 80.51 83.94-23.025 35.78-51.724 65-86.07 87.647-34.36 22.66-71.713 35.693-112.066 39.115l-21.13 37.687c42.258 0 82.18-9.038 119.77-27.12 37.59-18.077 70.668-43.49 99.216-76.226 13.322-15.42 23.695-29.218 31.12-41.4 3.807-6.476 5.71-13.046 5.71-19.702-.004-6.66-1.906-13.228-5.714-19.704z"/></svg>