<svg xmlns="http://www.w3.org/2000/svg" viewBox="0 0 213.067 48.158" width="213.067" height="48.158"><g fill="#FFF" stroke="#FFF" stroke-width=".5"><path d="M18.263 16.665c.238-.875.368-1.576 1.355-2.276.83-.57 1.904-.92 2.946-.92 3.86 0 2.596 4.42 2.096 6.26-.346 1.27-.897 2.844-1.72 4.07-.813 1.182-2.095 1.838-3.81 1.838-2.942 0-2.75-2.057-2.32-3.633l1.453-5.34zm-9.93-8.317L.326 37.763H12.46l2.573-9.455c1.363 1.97 4.067 2.845 7.314 2.845 4.35 0 8.052-1.663 10.8-4.333 2.25-2.19 3.576-5.034 4.255-7.53 1.43-5.252.156-11.38-8.67-11.38-4.166 0-7.848.92-9.873 3.633h-.124l.87-3.195H8.332zM52.616 30.715H40.483L46.57 8.348h12.133l-6.087 22.367zm6.67-24.512H47.154L48.773.25h12.134l-1.62 5.953zM88.104 16.052l6.55 14.664H81.97l-3.442-8.973-3.826 2.8-1.68 6.173H60.888L69.06.688h12.133l-4.407 16.195 3.314-2.495 8.997-6.04h10.54L88.104 16.05zM111.472 16.883c.438-2.057 2.213-3.852 5.4-3.852 3.43 0 3.958 1.664 3.363 3.853h-8.763zm7.976 5.822c-1.015 1.926-2.76 2.714-5.52 2.714-3.676 0-4.425-1.752-3.586-4.16H131.3l.32-1.18c2.002-7.355-3.06-12.17-13.478-12.17-4.473 0-9.55 1.095-13.38 3.46-3.525 2.144-6.073 5.427-6.896 8.447-.87 3.196.074 6.26 2.86 8.404 2.947 2.233 7.23 2.934 11.826 2.934 7.415 0 14.834-2.495 18.21-7.922l-11.314-.527z"/></g><g fill="#FFF"><path d="M133.595 8.268h-.736v2.355h-.687V8.268h-.745v-.582h2.167v.582zM135.73 10.623h-.47l-.717-2.394h-.008v2.393h-.578V7.686h1.074l.515 1.76.54-1.76h1.075v2.938h-.686V8.23h-.018l-.726 2.393z"/></g><g fill="#FFF"><path d="M204.113 2.106c-.05-.386-3.47.59-7.848 2.18-1.288.507-9.864 3.75-11.253 4.395.118-.536.184-1.71-.297-3.182-.733-2.24-2.39-2.167-3.99-1.598-2.126.755-3.37 1.74-4.53 2.703-.883.736-1.66 1.53-2.398 2.397-1.148.223-2.078.625-2.726 1.013-.732.44-1.637 1.248-1.98 1.91-.13.243-.23.4-.128.435.22.07 2.327-.602 2.586-.673.103-.03.216-.06.33-.09-.868 1.36-2.125 3.422-2.067 3.54.078.163.214-.017.214-.017s1.512-1.7 2.938-3.24c.63.992 1.194 1.72 1.68 2.152.502.445 1.354.96 2.19 1.168.72.18 2.154.193 2.36.144.466-.027.653-.198.61-.308-.045-.11-1.51-.26-2.032-.37-.524-.11-1.196-.353-1.747-.772-.422-.32-.958-.8-1.354-1.63-.183-.376-.414-1.285-.414-1.285s1.24-.277 1.89-.297c.697-.02 1.367.107 1.652.185.287.077.854.412.854.412s-.43.683-.397 1.085c0 .8.28 1.102.843 1.39.578.247 1.166.203 1.63-.238.303.198.513.572.893.784.4.297.827.262 1.08-.02.172-.188.006-.907.006-.907s-.162-.2-.396-.496c-.106-.136-.46-.73-.76-1.22-.453-.73-.61-.98-1.26-1.54-.895-.772-2.197-1.2-4.115-1.275 1.054-.78 2.122-1.418 3.52-1.855 1.312-.41 2.385-.314 2.803.196.42.51.532 1.53.467 2.127-.056.5-.312.912-.37 1.397-.06.486-.102.8.088.92.3.19 2.44-1.123 2.84-1.338.51-.274 2.26-1.046 3.46-1.6 1.858-.856 4.718-2.082 6.347-2.764 1.604-.672 7.91-3.077 8.337-3.305.422-.227.563-.432.446-.51zm-24.507 9.923s.48.48.567.7c-.16.158-.17.13-.326.224-.17-.188-.55-.464-.55-.464l.31-.46zM169.052 9.425c-.145-.29-4.352 1.09-4.737 1.163-.553.104-1.438.04-2.054-.24-.273-.126-4.312-2.313-4.312-2.313s-3.83-2.505-4.266-2.686c-.647-.272-1.306-.43-2.034-.174-1.464.516-3.153 1.66-4.224 2.48-1.972 1.514-3.246 3.666-3.36 4.182-.168.767-.192 1.156.603 1.803 1.322 1.078 6.685 3.668 6.87 3.693.19.025 1.17.175 1.508.09.34-.087.81-.242.825-.463.016-.222-.45-.067-1.117-.406-.732-.373-5.37-3.058-5.645-3.278-.137-.11-.88-.466-.804-1.028.067-.498 1.544-2.133 2.358-2.697 1.572-1.085 2.764-1.53 3.17-1.634.853-.215 1.96.01 2.54.3.58.286 3.716 1.81 4.706 2.284.988.474 3.102 1.387 3.588 1.446.33.04 1.548-.03 2.322-.406.317-.155 2.15-1.088 2.447-1.2.3-.11 1.764-.626 1.617-.915z"/><path d="M150.798 8.966l1.963-.678 6.93 4.91M148.527 10.434l1.65-1.202 6.8 4.977M146.92 12.29l1.092-1.31 6.788 4.504M153.554 31.016c.307.212-4.73 6.173-6.285 8.36-1.605 2.253-4.198 6.022-4.198 6.022s-.254.426.138.544c.392.12 4.147.218 4.147.218s4.503.2 5.133-.176c.63-.376 1.836-3.904 2.047-4.5.21-.597 2.55-7.668 2.553-6.512.004 1.16-.995 6.37-.995 6.37s-.79 3.46-1 4.057c-.213.596-.685 2.018-3.28 2.494-2.594.475-8.138.176-10.182.114-2.043-.062-1.326-2.235-1.03-2.78.297-.547 5.16-6.69 6.294-7.894 1.655-1.758 6.35-6.53 6.657-6.318z"/><path d="M150.017 45.588l1.31.03 4.023-10.72M147.242 45.493l1.447-.004 4.397-10.092M144.244 45.383l1.6.03 5.525-9.653M167.867 23.194c.36.56-3.006 2.716-4.887 5.87-.287.58-1.422 2.678-1.334 3.887.088 1.21 1.2 2.45 2.51 2.624 1.313.175 4.595-.728 5.87-1.268 1.276-.54 3.062-1.354 3.462-1.492 2.772-.773 3.414.04 3.414.04s-2.596.623-3.395 1.042c-.798.42-4.938 2.517-6.708 3.11-1.73.58-5.157.943-6.496.375-1.336-.565-1.503-1.645-1.48-2.267.054-2.656 1.26-4.927 2.84-7.09 1.562-2.134 4.34-4.176 4.69-4.374.35-.198 1.112-.753 1.513-.456zM201.222 32.337s-10.09-.235-12.516-.38c-2.427-.147-5.885-.938-6.932-.782-1.047.157-3.102 1.763-3.102 1.763s1.565-.25 1.83-.21c.263.042.773.203.87.432.093.23.267 1.345.267 1.345s2.21-.993 2.94-1.25c.73-.258 1.965-.39 2.266-.067.297.322.063 1.686.105 1.855.044.17.3.324.3.324s.97-.896 1.206-1.102c.237-.205 1.7-1.01 2.287-1.122.588-.113 1.286.218 1.397.515.11.297-.108.86-.108.86s.313-.004.46-.09c.148-.085 1.01-.645 1.215-.733.328-.14 1.42-.398 1.906-.482.484-.083 4.62-.336 4.986-.465.366-.13.622-.41.622-.41zM150.986 19.75s-12.443 10.32-12.877 10.756c-.434.436-6.216 6.208-6.92 6.566-.706.36-1.745.405-2.017.475-.272.07-2.407.79-3.163 1.09-.757.3-1.802 1.18-1.944 1.616-.145.434-.084.96.455 1.513.538.552 2.387.845 2.387.845s1.926.6 2.42.98c.495.382.302 1.192.345 1.507.043.315.602 1.804 1.088 2.006.484.203.79-.164 1.164-.403.375-.24 1.21-2.37 1.21-2.37s.43-1.883.997-2.93c.57-1.05 2.464-2.292 2.464-2.292s-.21 1.39-.006 1.63c.206.236 2.707.038 3.406-.067.697-.103.772-.45.953-1.31.198-.936.31-1.923.47-2.435.145-.46.59-1.036 1.09-1.344.502-.307 2.05-.913 2.05-.913s-2.06-.13-4.943 1.07c-1.277.53-2.318 1.42-3.016 1.813-.697.394-3.228 2.41-3.703 3.254-.474.844-.803 1.833-.996 2.497-.196.666-.382 1.22-.696 1.263-.314.044-.197-.35-.307-.5-.112-.154.1-.606-.064-.963-.162-.357-1.8-1.247-2.94-1.465-1.14-.218-2.24-.556-2.386-.7-.145-.144-.222-.306-.104-.553s1.31-.838 1.998-1.122c.69-.282 2.348-.883 2.722-.833.375.05.478.168.48.458 0 .29-.135 1.048-.135 1.048s1.782-2.262 2.376-2.92c.594-.656 8.48-7.975 10.843-9.948 2.36-1.974 5.98-4.558 7.15-5.214 1.15-.642 1.974-1.008 1.974-1.008l-1.824-1.092zm-13.13 18.276c.612-.806 2.73-1.668 2.73-1.668s-.352.397-.514 1.833c-.072.642-.205 1.194-.635 1.356-.43.163-1.826.353-1.88.078-.07-.345-.07-1.11.3-1.598z"/><path d="M138.086 39.507l1.057-.123.083-2.102M200.58 30.29l.453-2.37-1.807 1.906c-2.377-.878-5.476-2.26-5.476-2.26s-4.293-1.915-4.51-2.227c-.17-.248-.02-.648-.02-.648s-1.954.567-2.092.747c-.136.178-.065.45.08.594.144.145 4.77 2.124 5.573 2.428.802.304 7.167 2.278 7.474 2.345.307.068 1.074.235 1.277.184.205-.05.418-.213.28-.468-.185.048-.636-.05-1.23-.23zM212.265 25.756c-.104-.077-.383-.19-.772-.323l-.727-3.202-.82 2.726c-.203-.06-.41-.12-.623-.178l-.684-2.764-.754 2.368c-1.264-.343-2.402-.64-2.758-.743-.888-.26-7.43-2.032-7.904-1.61.718.254 10.3 2.994 13.164 4.514.438.232.7.692.512 1.3-.454 1.075-1.826 1.9-3.888 2.523-.14.042-.307.073-.48.096l-.428-2.42-1.116 2.416c-.413-.048-.84-.082-1.172.083-.314.157-.484.593-.266 1.1.275.635 2.267.3 2.89.19 1.63-.285 3.554-1.007 4.767-1.91 1.066-.796 1.564-1.545 1.73-2.105.246-.822.205-1.41-.672-2.062zM212.685.99c-.283-.398-.582-.652-1.672-.667-.793-.01-1.77.284-2.578.544-1.573.507-5.225 2.435-7.497 4.142-2.616 1.965-6.862 5.5-8.866 7.457-.953.932-7.76 7.534-8.336 8.12-1.096 1.11-.445 2.248-.24 2.486.207.24 1.748 1.262 1.98 1.312.307.067.758.134.995-.07.21-.18.255-.282-.07-.707-.154-.204-.777-.757-.92-.926-.31-.356-.207-.817-.038-1.004.17-.188 3.222-3.535 4.133-4.413.59-.57 2.667-2.514 4.945-4.526l1.348 1.61-.072-2.727c.36-.31.716-.613 1.07-.91l1 1.655.386-2.795c.363-.292.718-.57 1.047-.817.93-.698 2.604-1.902 4.143-2.965l.927 2.006.3-2.84c.296-.2.575-.384.83-.548l1.032 2.388.21-3.128c1.007-.52 1.767-.696 2.705-.738.462-.02 1.062.464 1.024 1.044-.056.92-2.16 3.624-2.532 4.008-.374.384-5.78 6.205-6.213 6.64-.44.444-4.006 4.346-4.522 5.02-.518.674-.813 1.51-.813 1.51s6.86-6.95 7.572-7.71c.412-.44 2.045-1.996 3.642-3.603l1.512 2.15-.1-3.602c.21-.223.41-.437.598-.644l1.38 3.093-.137-4.573c.813-1.055 2.044-2.78 2.13-3.942.04-.55-.02-.933-.302-1.332zM169.318 12.984l-2.293 1.205 1.29-2.984-3.493 1.83-2.822.258-9.292 5.634 1.902 2.095-5.237 2.702-8.243 6.61-7.826 7.413 4.008-3.042-.25 1.005 1.814-2.268.122 1.054 1.252-2.488.04 1.583 1.303-2.573-.115 1.84 1.746-3.123-.113 2.13 1.778-3.275-.01 2.536 1.727-3.768.145 2.57 1.743-3.7-.146 2.862 1.895-4.245-.11 3.286 1.844-4.16-.332 3.272 2.117-4.23-.28 3.475 2.22-4.4-.144 3.44 2.914-5.37-.533 4.19 2.81-5.202-.312 3.917 2.777-5.627-.023 4.206 2.35-5.59.285 4.562"/></g></svg>