<svg xmlns="http://www.w3.org/2000/svg" height="47.908" width="203.74" viewBox="0 0 203.73994 47.907825"><g fill="#fff"><g stroke-opacity="0" stroke="none" stroke-width=".5"><path d="M17.936 16.415c.238-.875.368-1.576 1.355-2.276a5.347 5.347 0 0 1 2.946-.919c3.86 0 2.596 4.421 2.096 6.259-.346 1.27-.897 2.845-1.721 4.071-.812 1.182-2.094 1.838-3.81 1.838-2.941 0-2.75-2.057-2.32-3.633l1.454-5.34zM8.005 8.098L0 37.513h12.133l2.573-9.455c1.363 1.97 4.067 2.845 7.314 2.845 4.35 0 8.052-1.663 10.8-4.333 2.25-2.189 3.576-5.034 4.255-7.529 1.429-5.253.156-11.381-8.67-11.381-4.166 0-7.848.919-9.873 3.633h-.123l.87-3.195H8.005zM49.289 30.465H37.156l6.087-22.367h12.133l-6.087 22.367zm6.67-24.512H43.827L45.446 0H57.58l-1.62 5.953zM80.777 15.802l6.55 14.664H74.642L71.2 21.493l-3.826 2.801-1.68 6.172H53.56L61.733.438h12.133l-4.407 16.195 3.314-2.495 8.997-6.041h10.54l-11.533 7.705z"/><path d="M102.143 16.633c.438-2.057 2.213-3.852 5.399-3.852 3.432 0 3.959 1.663 3.364 3.852h-8.763zm7.976 5.822c-1.015 1.926-2.761 2.714-5.52 2.714-3.676 0-4.425-1.751-3.586-4.158h20.958l.32-1.182c2.002-7.354-3.061-12.168-13.478-12.168-4.473 0-9.551 1.094-13.381 3.458-3.524 2.145-6.072 5.428-6.895 8.448-.87 3.196.074 6.26 2.86 8.404 2.947 2.232 7.229 2.933 11.826 2.933 7.415 0 14.834-2.495 18.21-7.922l-11.314-.527z"/></g><path d="M124.273 8.018h-.736v2.355h-.686V8.018h-.745v-.582h2.167v.582zM126.403 10.373h-.471l-.716-2.394h-.008v2.394h-.578V7.436h1.074l.514 1.76.54-1.76h1.075v2.938h-.686V7.979h-.018l-.726 2.394z"/><g><path d="M194.783 1.856c-.05-.386-3.471.589-7.848 2.18-1.288.507-9.864 3.751-11.253 4.395.118-.537.184-1.712-.297-3.183-.733-2.241-2.39-2.167-3.99-1.598-2.126.755-3.37 1.739-4.53 2.703a19.54 19.54 0 0 0-2.398 2.397c-1.148.223-2.078.625-2.726 1.013-.733.439-1.638 1.248-1.982 1.91-.128.243-.23.401-.127.435.22.071 2.327-.602 2.586-.673.103-.029.216-.06.33-.09-.868 1.359-2.125 3.422-2.067 3.541.077.162.213-.018.213-.018s1.512-1.701 2.938-3.239c.63.991 1.194 1.72 1.68 2.151.502.445 1.354.961 2.19 1.168.72.179 2.154.193 2.359.144.467-.027.654-.198.61-.308-.044-.11-1.51-.259-2.031-.37-.524-.11-1.196-.353-1.747-.772-.422-.321-.958-.799-1.354-1.631-.182-.375-.413-1.284-.413-1.284s1.24-.277 1.89-.297a6.251 6.251 0 0 1 1.652.185c.287.077.854.412.854.412s-.43.683-.397 1.085c0 .799.28 1.102.843 1.389.578.248 1.166.204 1.63-.237.303.198.513.572.893.784.399.297.826.262 1.079-.02.172-.188.006-.907.006-.907s-.162-.201-.396-.497c-.106-.136-.46-.731-.761-1.22-.452-.73-.61-.98-1.26-1.54-.894-.772-2.196-1.201-4.114-1.275 1.054-.779 2.122-1.417 3.52-1.854 1.312-.411 2.385-.314 2.803.196.419.509.532 1.53.467 2.126-.056.5-.312.912-.37 1.397-.06.486-.102.8.088.919.3.192 2.439-1.122 2.84-1.337.51-.274 2.259-1.046 3.459-1.599 1.859-.857 4.719-2.083 6.348-2.765 1.604-.672 7.91-3.077 8.337-3.305.422-.227.563-.432.446-.511zm-24.507 9.923s.479.48.567.7c-.16.159-.17.13-.326.225-.17-.188-.551-.464-.551-.464l.31-.461zM159.723 9.175c-.145-.289-4.352 1.091-4.737 1.163-.553.104-1.438.039-2.054-.241-.274-.125-4.313-2.312-4.313-2.312s-3.83-2.505-4.266-2.686c-.647-.271-1.306-.43-2.034-.173-1.464.516-3.153 1.659-4.224 2.481-1.972 1.513-3.246 3.665-3.36 4.181-.168.767-.192 1.156.603 1.803 1.322 1.077 6.685 3.667 6.87 3.692.189.025 1.169.175 1.508.089.34-.086.809-.241.825-.462.016-.222-.451-.067-1.117-.406-.732-.373-5.371-3.058-5.645-3.278-.137-.11-.88-.466-.804-1.028.067-.498 1.544-2.133 2.358-2.697 1.572-1.086 2.764-1.532 3.17-1.635.853-.215 1.959.011 2.539.299.58.287 3.717 1.812 4.707 2.285.988.474 3.102 1.387 3.588 1.446.329.04 1.548-.03 2.322-.406.317-.155 2.15-1.088 2.447-1.199.3-.112 1.764-.627 1.617-.916z"/><path d="M141.473 8.716l1.96-.678 6.93 4.909zM139.203 10.184l1.65-1.202 6.8 4.977zM137.593 12.039l1.09-1.308 6.79 4.503zM144.223 30.766c.307.212-4.73 6.173-6.285 8.361-1.604 2.252-4.197 6.021-4.197 6.021s-.254.426.138.544c.392.119 4.147.218 4.147.218s4.503.201 5.133-.176c.629-.376 1.836-3.904 2.047-4.5.21-.597 2.549-7.668 2.553-6.512.004 1.159-.995 6.371-.995 6.371s-.79 3.459-1.001 4.056c-.212.597-.684 2.019-3.28 2.495-2.593.475-8.137.176-10.181.114-2.043-.062-1.326-2.235-1.03-2.781.297-.546 5.16-6.688 6.294-7.893 1.655-1.758 6.349-6.53 6.657-6.318z"/><path d="M140.693 45.338l1.31.03 4.02-10.721zM137.913 45.243l1.45-.004 4.4-10.091zM134.913 45.133l1.6.029 5.53-9.652zM158.543 22.944c.359.561-3.006 2.716-4.887 5.871-.287.58-1.422 2.677-1.334 3.886.088 1.208 1.199 2.449 2.51 2.623 1.313.175 4.595-.728 5.87-1.268 1.276-.541 3.062-1.354 3.462-1.492 2.772-.773 3.414.041 3.414.041s-2.596.622-3.395 1.041c-.798.419-4.938 2.517-6.708 3.11-1.73.579-5.156.943-6.495.375-1.336-.566-1.503-1.646-1.48-2.268.054-2.656 1.259-4.927 2.84-7.091 1.562-2.133 4.339-4.175 4.689-4.373.35-.197 1.113-.752 1.514-.455zM191.893 32.087s-10.09-.235-12.516-.381c-2.427-.146-5.885-.937-6.932-.781-1.047.157-3.102 1.763-3.102 1.763s1.565-.251 1.829-.21c.264.042.774.203.87.432.094.23.268 1.345.268 1.345s2.21-.993 2.94-1.251c.732-.257 1.966-.389 2.267-.066.297.322.063 1.686.105 1.855.043.171.3.324.3.324s.968-.896 1.205-1.102c.237-.205 1.7-1.009 2.287-1.122.588-.113 1.286.218 1.397.515s-.108.859-.108.859.313-.003.46-.09c.148-.084 1.01-.644 1.215-.732.328-.14 1.42-.398 1.906-.482.484-.083 4.62-.336 4.986-.465.367-.129.623-.411.623-.411zM141.663 19.5s-12.443 10.321-12.877 10.756c-.433.436-6.215 6.208-6.92 6.566-.705.36-1.744.405-2.016.475-.272.069-2.407.791-3.163 1.09-.757.301-1.802 1.18-1.944 1.616-.145.434-.084.961.455 1.513.537.552 2.386.845 2.386.845s1.926.599 2.42.98c.495.381.302 1.191.345 1.506s.602 1.804 1.088 2.006c.484.203.79-.164 1.164-.403.375-.24 1.21-2.371 1.21-2.371s.43-1.882.997-2.93c.568-1.049 2.463-2.291 2.463-2.291s-.21 1.391-.006 1.629c.206.237 2.707.039 3.406-.066.697-.104.772-.452.953-1.31.198-.937.31-1.924.47-2.436.145-.46.589-1.036 1.09-1.344.502-.308 2.05-.914 2.05-.914s-2.061-.13-4.943 1.07c-1.277.531-2.318 1.419-3.016 1.813-.697.394-3.228 2.41-3.703 3.254-.474.844-.803 1.833-.996 2.497-.195.665-.381 1.219-.695 1.262-.314.044-.197-.349-.307-.501-.112-.153.1-.605-.064-.962-.162-.357-1.8-1.247-2.94-1.465s-2.24-.556-2.386-.7c-.145-.144-.222-.306-.104-.553s1.309-.838 1.998-1.122c.688-.282 2.347-.883 2.72-.833.376.05.479.168.48.458 0 .289-.134 1.048-.134 1.048s1.782-2.262 2.376-2.92c.594-.656 8.48-7.975 10.843-9.948 2.36-1.974 5.979-4.558 7.15-5.214 1.15-.643 1.974-1.009 1.974-1.009l-1.824-1.092zm-13.13 18.276c.612-.806 2.73-1.668 2.73-1.668s-.352.397-.514 1.833c-.072.641-.205 1.193-.635 1.355-.43.163-1.826.353-1.881.078-.068-.345-.068-1.11.3-1.598z"/><path d="M128.763 39.257l1.05-.123.09-2.102zM191.253 30.041l.453-2.37-1.807 1.905c-2.377-.878-5.476-2.26-5.476-2.26s-4.293-1.915-4.51-2.227c-.171-.247-.02-.647-.02-.647s-1.954.567-2.092.747c-.136.179-.065.451.079.595.145.145 4.772 2.124 5.574 2.428.8.304 7.166 2.278 7.473 2.345.307.068 1.074.235 1.277.184.204-.052.417-.214.279-.469-.185.048-.636-.049-1.23-.231zM202.933 25.506c-.104-.077-.383-.19-.772-.323l-.727-3.202-.821 2.725c-.202-.059-.41-.119-.622-.178l-.684-2.764-.753 2.368c-1.264-.343-2.402-.639-2.758-.743-.888-.258-7.43-2.031-7.904-1.609.718.254 10.299 2.994 13.164 4.514.438.232.7.692.512 1.301-.454 1.074-1.826 1.9-3.888 2.522a3.217 3.217 0 0 1-.48.096l-.428-2.42-1.116 2.416c-.413-.047-.84-.081-1.172.084-.314.157-.484.593-.266 1.1.275.635 2.267.301 2.89.191 1.63-.286 3.554-1.008 4.767-1.912 1.066-.795 1.564-1.544 1.73-2.104.246-.822.205-1.409-.672-2.062zM203.353.74c-.283-.398-.582-.652-1.672-.667-.793-.01-1.771.284-2.578.544-1.573.507-5.225 2.435-7.497 4.142-2.616 1.966-6.862 5.502-8.866 7.458-.953.932-7.76 7.534-8.336 8.12-1.096 1.11-.445 2.248-.24 2.486.207.241 1.748 1.262 1.98 1.312.307.067.758.134.995-.071.208-.179.254-.281-.07-.706-.155-.204-.778-.757-.922-.926-.308-.356-.206-.817-.037-1.004.17-.188 3.222-3.535 4.133-4.413.59-.57 2.667-2.514 4.945-4.526l1.348 1.612-.072-2.728c.36-.311.716-.613 1.069-.911l1 1.656.387-2.795c.363-.292.718-.57 1.047-.817.93-.698 2.605-1.902 4.144-2.965l.927 2.005.299-2.84c.297-.199.576-.384.83-.548l1.033 2.388.21-3.128c1.007-.52 1.767-.696 2.705-.738.462-.02 1.062.464 1.024 1.044-.057.919-2.16 3.624-2.533 4.008-.374.384-5.78 6.205-6.213 6.641-.441.443-4.006 4.345-4.522 5.019-.518.674-.813 1.509-.813 1.509s6.859-6.95 7.572-7.71c.412-.44 2.045-1.995 3.642-3.602l1.512 2.15-.101-3.601c.21-.223.41-.437.599-.644l1.379 3.093-.136-4.573c.813-1.055 2.044-2.779 2.13-3.942.04-.55-.021-.933-.302-1.332zM155.493 12.786l-2.82.258-9.29 5.634 1.9 2.095-5.24 2.702-8.24 6.611-7.83 7.412 4.01-3.042-.25 1.005 1.82-2.269.12 1.054 1.25-2.488.04 1.583 1.3-2.574-.11 1.839 1.74-3.122-.11 2.13 1.78-3.275-.01 2.537 1.72-3.768.15 2.571 1.74-3.7-.14 2.861 1.89-4.245-.11 3.286 1.85-4.16-.34 3.271 2.12-4.229-.28 3.474 2.22-4.4-.14 3.441 2.91-5.372-.53 4.19 2.81-5.201-.31 3.917 2.77-5.627-.02 4.206 2.35-5.592.28 4.563 3.5-7.628-2.3 1.205 1.3-2.983z"/></g></g></svg>